<?xml version="1.0" encoding="utf-8"?>
<!-- Generator: Adobe Illustrator 16.0.0, SVG Export Plug-In . SVG Version: 6.00 Build 0)  -->
<!DOCTYPE svg PUBLIC "-//W3C//DTD SVG 1.1//EN" "http://www.w3.org/Graphics/SVG/1.1/DTD/svg11.dtd">
<svg version="1.1" id="Layer_1" xmlns="http://www.w3.org/2000/svg" xmlns:xlink="http://www.w3.org/1999/xlink" x="0px" y="0px"
	 width="864px" height="864px" viewBox="0 0 864 864" enable-background="new 0 0 864 864" xml:space="preserve">
<g display="none">
	<path display="inline" d="M846.77,846.768l-52.617,1.243l-51.736,1.028l-51.735,0.883l-51.736,0.791l-103.472,1.264L432,852.897
		l-103.472,0.644l-103.472,0.354l-51.736,0.093l-51.736-0.04l-51.736-0.198l-51.736-0.354l-7.578-0.052l0.071-7.455l0.497-51.736
		l0.636-51.736l1.409-103.472l1.275-103.472l0.477-51.736L15.208,432l0.162-51.736l0.021-51.736l-0.098-51.736l-0.211-51.736
		l-0.324-51.736l-0.465-51.736l-1.11-103.472l-0.052-4.869l4.979-0.059l103.472-1.214l51.736-0.602l51.736-0.479
		c34.491-0.338,68.981-0.581,103.472-0.762L432,9.604l206.944-0.897l51.736-0.175l51.735-0.082L845.889,8.5l9.643,0.004l-0.03,9.607
		l-0.329,103.472l-0.535,103.472l-0.715,103.472L852.977,432l-0.518,51.736l-0.609,51.736l-0.621,51.735l-0.737,51.736
		l-0.771,51.736l-0.861,51.735l-0.966,51.736L846.77,846.768z M844.969,844.967l-1.084-50.814l-0.966-51.736l-0.861-51.735
		l-0.771-51.736l-0.737-51.736l-0.621-51.735l-0.609-51.736L838.801,432l-0.945-103.472l-0.715-103.472l-0.535-103.472
		l-0.329-103.472l9.612,9.612l-103.473,0.048l-51.735-0.082l-51.736-0.175L432,26.618l-103.472-0.522
		c-34.491-0.181-68.981-0.424-103.472-0.762l-51.736-0.479l-51.736-0.602L18.111,23.039l4.928-4.928l-1.11,103.472l-0.465,51.736
		l-0.324,51.736l-0.211,51.736l-0.098,51.736l0.021,51.736L21.015,432l0.311,51.736l0.477,51.736l1.275,103.472l1.409,103.472
		l0.636,51.736l0.497,51.736l-7.507-7.507l51.736-0.354l51.736-0.198l51.736-0.04l51.736,0.093l103.472,0.354L432,838.88
		l103.473,0.921l103.472,1.264l51.736,0.791l51.735,0.883l51.736,1.028L844.969,844.967z"/>
</g>
<g display="none">
	<polygon display="inline" points="200.699,590.369 200.699,389.152 334.669,389.152 334.669,415.497 229.04,415.497 
		229.04,473.288 320.852,473.288 320.852,499.632 229.04,499.632 229.04,590.369 	"/>
	<path display="inline" d="M330.863,392.959v18.731h-105.63v65.405h91.812v18.73h-91.812v90.738h-20.727V392.959H330.863z"/>
	<path display="inline" d="M436.459,590.369V389.152h77.194c9.913,0,18.859,1.766,26.59,5.25c7.69,3.467,14.268,8.069,19.555,13.679
		c5.276,5.605,9.333,11.983,12.06,18.958c2.72,6.97,4.099,14.048,4.099,21.038c0,7.494-1.376,14.876-4.092,21.938
		c-2.732,7.105-6.831,13.504-12.183,19.019c-5.345,5.508-11.956,9.977-19.653,13.282c-7.708,3.312-16.582,4.992-26.375,4.992
		h-48.854v83.061H436.459z M513.653,481.578c4.478,0,8.804-0.878,12.861-2.61c4.101-1.751,7.766-4.178,10.896-7.215
		c3.112-3.021,5.623-6.652,7.465-10.791c1.818-4.096,2.741-8.534,2.741-13.192s-0.872-8.997-2.594-12.895
		c-1.733-3.921-4.132-7.361-7.129-10.222c-2.998-2.862-6.607-5.127-10.727-6.729c-4.146-1.611-8.692-2.428-13.514-2.428h-48.854
		v66.082H513.653z"/>
	<path display="inline" d="M440.266,392.959h73.388c9.417,0,17.757,1.638,25.026,4.913c7.267,3.277,13.382,7.549,18.348,12.82
		c4.964,5.273,8.725,11.184,11.284,17.733c2.558,6.552,3.838,13.103,3.838,19.652c0,7.062-1.28,13.921-3.838,20.573
		c-2.56,6.654-6.348,12.565-11.361,17.733c-5.017,5.169-11.158,9.314-18.424,12.436c-7.269,3.123-15.56,4.683-24.873,4.683h-52.661
		v83.062h-20.727V392.959z M460.992,485.385h52.661c5.015,0,9.8-0.971,14.356-2.917c4.553-1.942,8.571-4.605,12.053-7.983
		c3.478-3.378,6.24-7.369,8.29-11.976c2.046-4.605,3.07-9.519,3.07-14.739c0-5.22-0.974-10.029-2.917-14.432
		c-1.945-4.399-4.605-8.214-7.983-11.438c-3.378-3.224-7.369-5.731-11.976-7.522c-4.606-1.79-9.572-2.687-14.894-2.687h-52.661
		V485.385z"/>
	<polygon display="inline" points="727.652,590.369 659.355,389.152 690.14,389.152 742.672,547.627 795.498,389.152 
		826.094,389.152 758.915,590.369 	"/>
	<path display="inline" d="M742.662,559.695l55.579-166.736h22.568l-64.637,193.604H730.38l-65.712-193.604h22.723L742.662,559.695z
		"/>
	<polygon display="inline" points="201.231,709.446 201.231,594.098 220.379,594.098 220.379,691.409 274.545,691.409 
		274.545,709.446 	"/>
	<path display="inline" d="M216.572,597.904v97.312h54.167v10.423h-65.701V597.904H216.572z"/>
	<path display="inline" d="M357.009,709.446l-11.961-32.978h-40.969l-11.961,32.978h-20.432l42.536-115.349h21.039l41.986,115.349
		H357.009z M338.391,658.688l-13.835-38.861l-13.897,38.861H338.391z"/>
	<path display="inline" d="M332.594,597.904l39.215,107.734h-12.132l-11.961-32.977H301.41l-11.961,32.977h-12.303l39.729-107.734
		H332.594z M324.563,608.499l-19.309,53.995h38.532L324.563,608.499z"/>
	<polygon display="inline" points="446.013,709.446 397.231,626.496 397.231,709.446 378.084,709.446 378.084,594.098 
		399.53,594.098 448.398,676.992 448.398,594.098 467.461,594.098 467.461,709.446 	"/>
	<path display="inline" d="M397.355,597.904l54.85,93.041v-93.041h11.449v107.734h-15.465l-54.764-93.125v93.125h-11.535V597.904
		H397.355z"/>
	<path display="inline" d="M476.164,709.446V594.098h43.792c7.675,0,14.739,1.57,20.997,4.666c6.213,3.078,11.562,7.306,15.9,12.567
		c4.295,5.209,7.641,11.354,9.943,18.262c2.284,6.854,3.442,14.243,3.442,21.965c0,8.02-1.22,15.624-3.626,22.601
		c-2.423,7.027-5.876,13.216-10.263,18.394c-4.425,5.224-9.788,9.387-15.938,12.37c-6.189,3.002-13.072,4.524-20.457,4.524H476.164z
		 M515.342,691.409c5.175,0,9.994-0.896,14.324-2.664c4.285-1.75,8.036-4.305,11.147-7.594c3.126-3.302,5.612-7.457,7.39-12.353
		c1.804-4.969,2.719-10.712,2.719-17.07c0-6.978-0.929-13.063-2.761-18.091c-1.797-4.927-4.28-9.022-7.382-12.175
		c-3.079-3.128-6.791-5.479-11.033-6.984c-4.379-1.556-9.226-2.344-14.404-2.344h-20.201v79.274H515.342z"/>
	<path display="inline" d="M479.971,597.904h39.985c7.118,0,13.555,1.424,19.308,4.271c5.753,2.85,10.638,6.706,14.653,11.576
		c4.016,4.871,7.104,10.552,9.27,17.045c2.164,6.493,3.246,13.414,3.246,20.761c0,7.634-1.14,14.754-3.417,21.36
		c-2.279,6.607-5.468,12.332-9.568,17.172c-4.102,4.842-9.001,8.644-14.695,11.406c-5.696,2.764-11.962,4.143-18.796,4.143h-39.985
		V597.904z M491.334,695.216h24.008c5.694,0,10.949-0.981,15.763-2.947c4.812-1.964,8.972-4.799,12.475-8.501
		c3.503-3.701,6.236-8.258,8.201-13.669c1.965-5.412,2.948-11.535,2.948-18.37c0-7.46-0.998-13.925-2.99-19.395
		c-1.995-5.467-4.742-9.979-8.245-13.541c-3.503-3.559-7.661-6.193-12.474-7.902c-4.813-1.71-10.039-2.562-15.678-2.562h-24.008
		V695.216z"/>
	<rect x="584.581" y="594.098" display="inline" width="19.062" height="115.349"/>
	<path display="inline" d="M599.836,597.904v107.734h-11.448V597.904H599.836z"/>
	<polygon display="inline" points="686.084,709.446 637.304,626.496 637.304,709.446 618.157,709.446 618.157,594.098 
		639.602,594.098 688.471,676.992 688.471,594.098 707.533,594.098 707.533,709.446 	"/>
	<path display="inline" d="M637.427,597.904l54.851,93.041v-93.041h11.448v107.734h-15.464l-54.765-93.125v93.125h-11.533V597.904
		H637.427z"/>
	<path display="inline" d="M768.913,712.265c-8.063,0-15.449-1.593-21.948-4.736c-6.479-3.132-12.082-7.521-16.654-13.047
		c-4.529-5.47-8.05-11.966-10.466-19.307c-2.395-7.271-3.609-15.218-3.609-23.617c0-4.912,0.517-9.874,1.534-14.746
		c1.018-4.881,2.539-9.61,4.521-14.058c1.991-4.464,4.471-8.656,7.369-12.461c2.94-3.858,6.37-7.258,10.197-10.104
		c3.854-2.867,8.194-5.148,12.9-6.779c4.741-1.641,9.918-2.474,15.388-2.474c6.819,0,13.023,0.93,18.437,2.765
		c5.443,1.846,10.265,4.448,14.329,7.737c4.055,3.281,7.503,7.231,10.254,11.74c2.709,4.446,4.818,9.373,6.272,14.641l1.329,4.82
		h-19.826l-0.895-2.542c-2.575-7.31-6.288-12.765-11.036-16.214c-4.722-3.428-11.068-5.167-18.864-5.167
		c-4.669,0-9.003,1.102-12.877,3.273c-3.993,2.238-7.495,5.316-10.408,9.149c-2.967,3.904-5.311,8.519-6.963,13.717
		c-1.668,5.239-2.513,10.858-2.513,16.701c0,6.95,0.936,13.188,2.782,18.537c1.832,5.315,4.306,9.855,7.351,13.495
		c2.988,3.57,6.517,6.321,10.485,8.178c3.969,1.86,8.225,2.803,12.654,2.803c2.466,0,4.965-0.433,7.426-1.284
		c2.533-0.878,4.983-2.13,7.281-3.721c2.342-1.62,4.551-3.569,6.567-5.792c2.02-2.228,3.81-4.703,5.32-7.356
		c1.502-2.644,2.712-5.458,3.596-8.365c0.481-1.585,0.847-3.198,1.095-4.826h-33.042v-17.694h51.955v63.915h-13.999l-2.49-13.946
		c-0.572,0.614-1.161,1.223-1.771,1.825c-2.814,2.785-5.95,5.308-9.318,7.492c-3.392,2.2-7.004,3.998-10.735,5.343
		C776.664,711.557,772.752,712.265,768.913,712.265z"/>
	<path display="inline" d="M731.577,651.558c0,7.404,0.996,14,2.99,19.779c1.993,5.781,4.67,10.679,8.031,14.695
		c3.359,4.015,7.29,7.078,11.79,9.184c4.499,2.108,9.255,3.161,14.268,3.161c2.905,0,5.795-0.498,8.671-1.494
		c2.877-0.996,5.61-2.393,8.203-4.188c2.591-1.793,4.998-3.915,7.219-6.363c2.222-2.449,4.158-5.128,5.81-8.031
		c1.652-2.906,2.961-5.952,3.931-9.143c0.968-3.189,1.509-6.436,1.623-9.739h-33.406v-10.081h44.343v56.301h-7.007l-3.417-19.136
		c-1.823,2.79-4.059,5.496-6.707,8.115c-2.647,2.622-5.553,4.956-8.714,7.007c-3.161,2.05-6.48,3.702-9.954,4.954
		c-3.475,1.252-6.92,1.879-10.337,1.879c-7.519,0-14.283-1.451-20.291-4.355c-6.011-2.906-11.137-6.921-15.38-12.048
		c-4.243-5.126-7.504-11.149-9.782-18.069s-3.417-14.396-3.417-22.428c0-4.669,0.482-9.325,1.452-13.969
		c0.968-4.64,2.393-9.068,4.272-13.285c1.879-4.215,4.187-8.116,6.92-11.704s5.881-6.708,9.44-9.355
		c3.559-2.648,7.52-4.728,11.876-6.237c4.357-1.508,9.069-2.264,14.141-2.264c6.435,0,12.174,0.855,17.214,2.563
		c5.041,1.708,9.427,4.072,13.158,7.091c3.729,3.021,6.862,6.607,9.397,10.764c2.534,4.159,4.485,8.716,5.854,13.672h-12.133
		c-2.849-8.088-6.979-14.099-12.389-18.028c-5.411-3.931-12.445-5.895-21.102-5.895c-5.355,0-10.269,1.254-14.738,3.759
		c-4.473,2.508-8.33,5.895-11.576,10.167c-3.247,4.272-5.768,9.228-7.562,14.866C732.474,639.341,731.577,645.293,731.577,651.558z"
		/>
	<path display="inline" d="M201.504,823.644V713.095h42.826c5.524,0,10.527,0.991,14.87,2.948c4.305,1.942,7.993,4.525,10.962,7.677
		c2.962,3.146,5.241,6.731,6.775,10.653c1.527,3.913,2.301,7.894,2.301,11.833c0,4.205-0.772,8.344-2.294,12.305
		c-1.541,4.005-3.85,7.609-6.862,10.714c-3.005,3.098-6.715,5.606-11.025,7.458c-4.322,1.857-9.277,2.8-14.726,2.8h-24.192v44.161
		H201.504z M244.33,762.236c2.166,0,4.174-0.407,6.139-1.245c1.977-0.844,3.744-2.014,5.25-3.475
		c1.49-1.448,2.695-3.192,3.581-5.184c0.878-1.975,1.304-4.031,1.304-6.289c0-2.229-0.413-4.293-1.227-6.137
		c-0.827-1.87-1.968-3.506-3.391-4.865c-1.425-1.36-3.149-2.439-5.12-3.206c-1.994-0.775-4.195-1.168-6.538-1.168h-24.192v31.568
		H244.33z"/>
	<path display="inline" d="M205.311,716.901h39.019c5.006,0,9.441,0.871,13.306,2.612c3.863,1.743,7.114,4.014,9.754,6.816
		c2.639,2.803,4.639,5.946,6,9.429c1.359,3.482,2.041,6.967,2.041,10.447c0,3.756-0.681,7.402-2.041,10.939
		c-1.361,3.538-3.375,6.681-6.041,9.427c-2.667,2.75-5.932,4.954-9.795,6.613c-3.865,1.66-8.272,2.49-13.224,2.49h-27.999v44.161
		h-11.02V716.901z M216.331,766.043h27.999c2.666,0,5.21-0.517,7.632-1.551c2.421-1.033,4.557-2.449,6.408-4.245
		c1.849-1.796,3.319-3.918,4.408-6.366c1.088-2.449,1.633-5.062,1.633-7.837c0-2.776-0.518-5.334-1.552-7.674
		c-1.034-2.339-2.448-4.367-4.244-6.081s-3.918-3.048-6.367-4c-2.449-0.952-5.09-1.428-7.918-1.428h-27.999V766.043z"/>
	<path display="inline" d="M357.738,823.644l-11.428-31.509h-38.906l-11.428,31.509h-19.884l40.765-110.549h20.339l40.24,110.549
		H357.738z M339.828,774.808l-12.979-36.457l-13.037,36.457H339.828z"/>
	<path display="inline" d="M334.53,716.901l37.468,102.936h-11.591l-11.428-31.509h-44.243l-11.428,31.509h-11.755l37.958-102.936
		H334.53z M326.857,727.023l-18.449,51.591h36.815L326.857,727.023z"/>
	<path display="inline" d="M428.486,826.337c-7.73,0-14.81-1.527-21.044-4.543c-6.208-2.999-11.581-7.207-15.969-12.508
		c-4.34-5.243-7.715-11.468-10.03-18.502c-2.293-6.966-3.456-14.576-3.456-22.619c0-4.704,0.494-9.457,1.468-14.124
		c0.975-4.679,2.433-9.209,4.331-13.465c1.909-4.28,4.284-8.298,7.061-11.941c2.816-3.695,6.105-6.955,9.775-9.687
		c3.693-2.748,7.856-4.936,12.373-6.5c4.545-1.575,9.511-2.373,14.756-2.373c6.537,0,12.482,0.891,17.671,2.65
		c5.218,1.77,9.842,4.266,13.742,7.42c3.892,3.151,7.2,6.941,9.836,11.265c2.595,4.257,4.617,8.977,6.011,14.03l1.329,4.817h-19.284
		l-0.896-2.542c-2.448-6.949-5.976-12.134-10.482-15.407c-4.481-3.256-10.513-4.906-17.926-4.906c-4.495,0-8.492,1.016-12.22,3.104
		c-3.794,2.128-7.122,5.054-9.891,8.697c-2.824,3.716-5.054,8.107-6.627,13.054c-1.587,4.989-2.392,10.342-2.392,15.907
		c0,6.623,0.891,12.563,2.649,17.656c1.744,5.059,4.097,9.378,6.994,12.838c2.838,3.392,6.189,6.006,9.96,7.772
		c3.77,1.765,7.812,2.66,12.018,2.66c2.339,0,4.707-0.41,7.039-1.218c2.407-0.834,4.734-2.023,6.917-3.534
		c2.227-1.542,4.328-3.396,6.244-5.509c1.922-2.118,3.625-4.472,5.062-6.999c1.431-2.516,2.581-5.194,3.421-7.957
		c0.438-1.443,0.775-2.91,1.01-4.393h-31.54v-17.246h49.979v61.407h-13.687l-2.346-13.132c-0.475,0.505-0.963,1.006-1.464,1.501
		c-2.704,2.676-5.71,5.092-8.933,7.182c-3.251,2.11-6.714,3.833-10.291,5.122C435.934,825.657,432.177,826.337,428.486,826.337z"/>
	<path display="inline" d="M392.814,768.165c0,7.075,0.951,13.376,2.857,18.897c1.904,5.524,4.461,10.204,7.673,14.04
		c3.21,3.837,6.965,6.763,11.265,8.776c4.298,2.013,8.843,3.02,13.632,3.02c2.776,0,5.537-0.476,8.286-1.429
		c2.747-0.952,5.359-2.285,7.836-4c2.476-1.715,4.775-3.741,6.898-6.081c2.122-2.34,3.972-4.898,5.551-7.673
		c1.577-2.776,2.829-5.687,3.755-8.734c0.925-3.047,1.441-6.148,1.551-9.306h-31.917v-9.633h42.366v53.794h-6.694l-3.265-18.285
		c-1.742,2.668-3.878,5.252-6.408,7.755c-2.53,2.504-5.306,4.735-8.326,6.694s-6.191,3.538-9.511,4.734s-6.611,1.796-9.877,1.796
		c-7.183,0-13.646-1.388-19.387-4.163c-5.742-2.775-10.64-6.613-14.693-11.51c-4.055-4.897-7.171-10.653-9.347-17.265
		c-2.176-6.612-3.265-13.756-3.265-21.429c0-4.462,0.461-8.909,1.388-13.347c0.925-4.435,2.285-8.666,4.082-12.692
		c1.795-4.027,4-7.756,6.612-11.184c2.612-3.429,5.619-6.408,9.02-8.938c3.4-2.531,7.184-4.517,11.347-5.959
		s8.665-2.164,13.51-2.164c6.149,0,11.632,0.816,16.448,2.449s9.006,3.892,12.571,6.775c3.563,2.886,6.558,6.313,8.979,10.286
		c2.421,3.972,4.285,8.325,5.592,13.06h-11.592c-2.722-7.726-6.667-13.469-11.836-17.223c-5.171-3.756-11.892-5.633-20.163-5.633
		c-5.116,0-9.81,1.197-14.081,3.591c-4.273,2.396-7.959,5.633-11.061,9.714c-3.103,4.082-5.511,8.816-7.225,14.203
		C393.671,756.493,392.814,762.179,392.814,768.165z"/>
	<polygon display="inline" points="484.351,823.644 484.351,713.095 560.695,713.095 560.695,730.668 502.983,730.668 
		502.983,757.828 557.268,757.828 557.268,775.401 502.983,775.401 502.983,806.072 563.227,806.072 563.227,823.644 	"/>
	<path display="inline" d="M556.889,716.901v9.96h-57.712v34.773h54.284v9.96h-54.284v38.284h60.243v9.958h-71.263V716.901H556.889z
		"/>
	<path display="inline" d="M613.457,826.583c-5.258,0-10.44-0.899-15.402-2.671c-4.983-1.78-9.486-4.357-13.384-7.66
		c-3.934-3.333-7.158-7.436-9.584-12.195c-2.45-4.812-3.784-10.257-3.964-16.186l-0.119-3.922h18.805l0.262,3.524
		c0.237,3.177,0.975,6.128,2.192,8.771c1.207,2.625,2.836,4.925,4.843,6.839c1.997,1.905,4.393,3.41,7.121,4.472
		c2.751,1.075,5.856,1.619,9.23,1.619c3.119,0,6.137-0.337,8.967-1.001c2.654-0.623,5.023-1.641,7.044-3.026
		c1.934-1.325,3.426-2.988,4.562-5.081c1.103-2.038,1.662-4.642,1.662-7.737c0-2.248-0.526-4.069-1.607-5.569
		c-1.249-1.729-2.938-3.253-5.024-4.532c-2.29-1.403-4.929-2.633-7.841-3.652c-3.123-1.095-6.362-2.166-9.629-3.184
		c-2.759-0.812-5.604-1.703-8.396-2.634c-2.899-0.967-5.729-2.073-8.409-3.288c-2.775-1.254-5.409-2.742-7.825-4.423
		c-2.513-1.746-4.739-3.802-6.617-6.11c-1.927-2.367-3.457-5.121-4.55-8.186c-1.095-3.062-1.65-6.567-1.65-10.42
		c0-4.827,0.975-9.209,2.897-13.021c1.927-3.82,4.678-7.053,8.176-9.605c3.384-2.469,7.441-4.358,12.059-5.618
		c4.493-1.226,9.499-1.848,14.878-1.848c7.188,0,13.315,1.082,18.213,3.215c4.917,2.142,8.956,4.945,12.003,8.33
		c3.035,3.372,5.263,7.163,6.621,11.269c1.293,3.912,2.069,7.761,2.308,11.439l0.263,4.052h-18.843l-0.278-3.504
		c-0.231-2.901-0.914-5.46-2.03-7.604s-2.566-3.958-4.309-5.392c-1.766-1.453-3.843-2.568-6.171-3.313
		c-2.414-0.773-5.031-1.164-7.776-1.164c-2.603,0-5.189,0.272-7.688,0.811c-2.363,0.512-4.494,1.323-6.329,2.411
		c-1.697,1.006-3.018,2.271-4.036,3.872c-0.932,1.464-1.404,3.371-1.404,5.67c0,2.387,0.526,4.308,1.61,5.875
		c1.22,1.765,2.89,3.314,4.964,4.608c2.283,1.424,4.973,2.691,7.996,3.765c3.234,1.151,6.589,2.242,9.969,3.243
		c2.843,0.893,5.665,1.806,8.448,2.733c2.898,0.967,5.718,2.075,8.38,3.293c2.745,1.255,5.335,2.707,7.698,4.312
		c2.505,1.701,4.704,3.713,6.536,5.979c1.869,2.316,3.357,5.015,4.422,8.021c1.067,3.012,1.607,6.433,1.607,10.169
		c0,5.563-1.062,10.571-3.158,14.886c-2.1,4.322-5.061,7.987-8.804,10.895c-3.667,2.851-8.062,5.008-13.059,6.413
		C624.441,825.889,619.11,826.583,613.457,826.583z"/>
	<path display="inline" d="M586.275,787.756c0.271,3.647,1.113,7.008,2.53,10.081c1.414,3.076,3.306,5.743,5.673,8
		c2.367,2.259,5.156,4.015,8.367,5.266c3.21,1.253,6.747,1.878,10.611,1.878c3.429,0,6.706-0.367,9.837-1.102
		c3.128-0.735,5.904-1.932,8.326-3.593c2.421-1.659,4.34-3.796,5.755-6.407c1.414-2.612,2.123-5.796,2.123-9.551
		c0-3.048-0.775-5.646-2.327-7.796c-1.551-2.148-3.592-4-6.122-5.551s-5.388-2.885-8.571-4s-6.436-2.189-9.755-3.226
		c-2.775-0.816-5.551-1.686-8.326-2.61c-2.776-0.926-5.457-1.972-8.04-3.144c-2.586-1.169-4.994-2.531-7.225-4.082
		c-2.231-1.551-4.178-3.347-5.837-5.387c-1.66-2.04-2.967-4.394-3.918-7.062c-0.952-2.665-1.429-5.713-1.429-9.142
		c0-4.246,0.829-8.014,2.49-11.307c1.659-3.291,3.999-6.041,7.021-8.244c3.02-2.203,6.625-3.878,10.815-5.02
		c4.189-1.144,8.815-1.715,13.877-1.715c6.693,0,12.258,0.967,16.693,2.898c4.435,1.931,7.999,4.394,10.693,7.387
		s4.639,6.299,5.837,9.918c1.195,3.619,1.903,7.115,2.123,10.488h-11.266c-0.272-3.427-1.089-6.448-2.449-9.059
		c-1.361-2.613-3.115-4.804-5.265-6.572c-2.151-1.769-4.626-3.103-7.429-4c-2.803-0.896-5.783-1.346-8.938-1.346
		c-2.886,0-5.715,0.298-8.489,0.896c-2.776,0.601-5.265,1.551-7.469,2.857c-2.204,1.306-3.974,3.008-5.308,5.102
		c-1.333,2.095-2,4.667-2,7.715c0,3.157,0.763,5.836,2.287,8.039c1.522,2.204,3.551,4.097,6.08,5.675
		c2.531,1.579,5.442,2.951,8.735,4.122c3.292,1.17,6.68,2.273,10.163,3.305c2.775,0.872,5.551,1.771,8.326,2.695
		c2.775,0.926,5.44,1.973,8,3.143c2.558,1.17,4.938,2.503,7.142,4c2.205,1.498,4.108,3.237,5.715,5.224
		c1.604,1.987,2.869,4.285,3.795,6.898c0.926,2.612,1.389,5.579,1.389,8.897c0,5.007-0.926,9.416-2.775,13.224
		c-1.851,3.81-4.422,6.993-7.714,9.551c-3.294,2.559-7.212,4.478-11.755,5.754c-4.545,1.279-9.483,1.92-14.816,1.92
		c-4.844,0-9.55-0.816-14.122-2.449c-4.57-1.633-8.64-3.959-12.203-6.979c-3.564-3.021-6.449-6.694-8.653-11.02
		c-2.203-4.327-3.387-9.184-3.551-14.572H586.275z"/>
	<rect x="657.243" y="809.339" display="inline" width="14.153" height="14.305"/>
	<path display="inline" d="M667.59,813.146v6.691h-6.54v-6.691H667.59z"/>
	<path display="inline" d="M696.268,825.021c-3.809,0-7.334-0.71-10.476-2.107c-3.188-1.418-5.94-3.498-8.182-6.181
		c-2.187-2.618-3.886-5.828-5.05-9.542c-1.132-3.602-1.705-7.696-1.705-12.171c0-2.371,0.246-4.738,0.733-7.038
		c0.489-2.32,1.222-4.552,2.176-6.632c0.962-2.101,2.162-4.07,3.565-5.854c1.445-1.835,3.13-3.443,5.009-4.781
		c1.902-1.353,4.034-2.42,6.34-3.174c2.329-0.761,4.855-1.146,7.513-1.146c3.285,0,6.289,0.455,8.928,1.351
		c2.669,0.904,5.044,2.188,7.059,3.817c2.004,1.622,3.707,3.571,5.063,5.796c1.314,2.159,2.337,4.543,3.04,7.089l1.328,4.818
		h-13.123l-0.896-2.542c-1.008-2.86-2.419-4.965-4.191-6.253c-1.747-1.269-4.173-1.912-7.208-1.912
		c-1.763,0-3.322,0.385-4.767,1.176c-1.558,0.854-2.87,1.979-4.013,3.441c-1.171,1.502-2.103,3.293-2.764,5.319
		c-0.676,2.066-1.018,4.287-1.018,6.601c0,3.223,0.41,6.02,1.219,8.314c0.791,2.247,1.81,4.096,3.028,5.496
		c1.186,1.362,2.476,2.344,3.941,3c1.481,0.664,2.936,0.987,4.448,0.987c1.562,0,2.96-0.273,4.152-0.812
		c1.29-0.58,2.377-1.318,3.32-2.254c0.966-0.955,1.773-2.065,2.402-3.304c0.654-1.285,1.118-2.613,1.381-3.943l0.604-3.07h12.984
		l-0.879,4.531c-0.55,2.833-1.462,5.521-2.711,7.99c-1.29,2.549-2.967,4.811-4.984,6.723c-2.044,1.938-4.456,3.482-7.167,4.588
		C702.643,824.456,699.579,825.021,696.268,825.021z"/>
	<path display="inline" d="M679.824,795.097c0,3.67,0.479,6.864,1.435,9.58c0.956,2.713,2.205,4.957,3.748,6.729
		c1.541,1.772,3.294,3.097,5.258,3.976c1.962,0.88,3.963,1.319,6.003,1.319c2.116,0,4.021-0.382,5.717-1.147
		c1.694-0.764,3.174-1.771,4.436-3.021c1.263-1.247,2.3-2.676,3.116-4.281c0.815-1.606,1.39-3.251,1.722-4.933h5.238
		c-0.484,2.498-1.275,4.831-2.371,6.997c-1.097,2.167-2.498,4.06-4.207,5.679c-1.707,1.62-3.702,2.894-5.983,3.823
		c-2.282,0.931-4.837,1.396-7.667,1.396c-3.289,0-6.266-0.594-8.929-1.778c-2.664-1.186-4.934-2.899-6.807-5.144
		c-1.873-2.243-3.321-4.99-4.34-8.24c-1.021-3.249-1.53-6.927-1.53-11.032c0-2.116,0.217-4.198,0.65-6.251
		c0.434-2.052,1.07-3.997,1.912-5.832c0.842-1.836,1.873-3.531,3.098-5.087c1.224-1.554,2.631-2.899,4.225-4.033
		s3.365-2.02,5.315-2.657s4.06-0.957,6.329-0.957c2.88,0,5.449,0.383,7.705,1.148c2.256,0.764,4.219,1.823,5.889,3.173
		c1.669,1.352,3.072,2.958,4.206,4.817c1.134,1.862,2.008,3.9,2.619,6.119h-5.429c-1.275-3.619-3.124-6.309-5.545-8.068
		c-2.422-1.759-5.571-2.639-9.445-2.639c-2.397,0-4.596,0.549-6.596,1.644c-2.003,1.099-3.729,2.576-5.183,4.437
		c-1.452,1.861-2.581,4.022-3.384,6.481C680.227,789.775,679.824,792.368,679.824,795.097z"/>
	<path display="inline" d="M745.481,824.906c-3.977,0-7.605-0.741-10.785-2.203c-3.21-1.476-5.95-3.584-8.145-6.27
		c-2.14-2.611-3.78-5.74-4.878-9.297c-1.064-3.446-1.604-7.266-1.604-11.352c0-4.061,0.539-7.867,1.604-11.314
		c1.098-3.555,2.738-6.684,4.878-9.299c2.196-2.684,4.936-4.793,8.144-6.268c3.181-1.462,6.81-2.202,10.786-2.202
		c4.002,0,7.644,0.74,10.824,2.202c3.202,1.474,5.946,3.578,8.154,6.257c2.158,2.619,3.809,5.751,4.907,9.31
		c1.063,3.449,1.603,7.255,1.603,11.314c0,4.085-0.539,7.903-1.603,11.351c-1.1,3.562-2.75,6.692-4.906,9.311
		c-2.208,2.678-4.951,4.784-8.152,6.257C753.125,824.165,749.483,824.906,745.481,824.906z M745.481,778.826
		c-1.766,0-3.355,0.345-4.858,1.054c-1.509,0.71-2.791,1.713-3.919,3.066c-1.162,1.393-2.099,3.163-2.784,5.264
		c-0.713,2.181-1.075,4.729-1.075,7.575c0,2.845,0.362,5.394,1.075,7.575c0.688,2.105,1.627,3.886,2.792,5.291
		c1.129,1.363,2.407,2.369,3.911,3.077c1.501,0.707,3.09,1.052,4.858,1.052s3.357-0.345,4.86-1.052
		c1.506-0.71,2.796-1.721,3.939-3.09c1.176-1.406,2.127-3.188,2.827-5.296c0.72-2.176,1.087-4.72,1.087-7.558
		c0-2.839-0.367-5.382-1.088-7.56c-0.698-2.101-1.646-3.873-2.818-5.267c-1.145-1.359-2.436-2.367-3.947-3.079
		C748.837,779.171,747.248,778.826,745.481,778.826z"/>
	<path display="inline" d="M767.163,795.785c0,3.723-0.478,7.131-1.433,10.229c-0.957,3.097-2.359,5.768-4.208,8.01
		c-1.849,2.244-4.116,3.983-6.806,5.221c-2.69,1.236-5.769,1.854-9.235,1.854c-3.441,0-6.507-0.618-9.196-1.854
		c-2.69-1.237-4.952-2.977-6.787-5.221c-1.836-2.242-3.231-4.913-4.188-8.01c-0.956-3.099-1.434-6.507-1.434-10.229
		c0-3.696,0.478-7.094,1.434-10.191c0.956-3.097,2.352-5.768,4.188-8.012c1.835-2.242,4.097-3.981,6.787-5.22
		c2.689-1.234,5.755-1.854,9.196-1.854c3.467,0,6.545,0.619,9.235,1.854c2.689,1.238,4.957,2.978,6.806,5.22
		c1.849,2.244,3.251,4.915,4.208,8.012C766.686,788.691,767.163,792.089,767.163,795.785z M762.002,795.785
		c0-3.264-0.429-6.183-1.281-8.758c-0.854-2.573-2.027-4.747-3.519-6.519c-1.491-1.772-3.238-3.13-5.238-4.073
		c-2.003-0.942-4.163-1.416-6.482-1.416c-2.32,0-4.48,0.474-6.481,1.416c-2.001,0.943-3.742,2.301-5.22,4.073
		c-1.479,1.771-2.638,3.945-3.479,6.519c-0.841,2.575-1.263,5.494-1.263,8.758c0,3.263,0.422,6.182,1.263,8.757
		c0.842,2.574,2.001,4.754,3.479,6.538c1.478,1.785,3.219,3.149,5.22,4.092s4.161,1.414,6.481,1.414
		c2.319,0,4.479-0.472,6.482-1.414c2-0.942,3.747-2.307,5.238-4.092c1.491-1.784,2.664-3.964,3.519-6.538
		C761.573,801.967,762.002,799.048,762.002,795.785z"/>
	<polygon display="inline" points="809.854,823.644 809.854,801.673 801.787,823.644 791.862,823.644 783.511,801.309 
		783.511,823.644 770.736,823.644 770.736,767.812 783.841,767.812 796.531,801.916 809.507,767.812 822.592,767.812 
		822.592,823.644 	"/>
	<path display="inline" d="M781.195,771.618l15.297,41.106l15.64-41.106h6.653v48.219h-5.125v-39.576l-14.529,39.576h-4.628
		l-14.799-39.576v39.576h-5.162v-48.219H781.195z"/>
</g>
<g>
	<g>
		<path d="M846.77,846.768l-52.617,1.243l-51.736,1.028l-51.735,0.883l-51.736,0.791l-103.472,1.264L432,852.897l-103.472,0.644
			l-103.472,0.354l-51.736,0.093l-51.736-0.04l-51.736-0.198l-51.736-0.354l-7.578-0.052l0.071-7.455l0.497-51.736l0.636-51.736
			l1.409-103.472l1.275-103.472l0.477-51.736L15.208,432l0.162-51.736l0.021-51.736l-0.098-51.736l-0.211-51.736l-0.324-51.736
			l-0.465-51.736l-1.11-103.472l-0.052-4.869l4.979-0.059l103.472-1.214l51.736-0.602l51.736-0.479
			c34.491-0.338,68.981-0.581,103.472-0.762L432,9.604l206.944-0.897l51.736-0.175l51.735-0.082L845.889,8.5l9.643,0.004
			l-0.03,9.607l-0.329,103.472l-0.535,103.472l-0.715,103.472L852.977,432l-0.518,51.736l-0.609,51.736l-0.621,51.735l-0.737,51.736
			l-0.771,51.736l-0.861,51.735l-0.966,51.736L846.77,846.768z M844.969,844.967l-1.084-50.814l-0.966-51.736l-0.861-51.735
			l-0.771-51.736l-0.737-51.736l-0.621-51.735l-0.609-51.736L838.801,432l-0.945-103.472l-0.715-103.472l-0.535-103.472
			l-0.329-103.472l9.612,9.612l-103.473,0.048l-51.735-0.082l-51.736-0.175L432,26.618l-103.472-0.522
			c-34.491-0.181-68.981-0.424-103.472-0.762l-51.736-0.479l-51.736-0.602L18.111,23.039l4.928-4.928l-1.11,103.472l-0.465,51.736
			l-0.324,51.736l-0.211,51.736l-0.098,51.736l0.021,51.736L21.015,432l0.311,51.736l0.477,51.736l1.275,103.472l1.409,103.472
			l0.636,51.736l0.497,51.736l-7.507-7.507l51.736-0.354l51.736-0.198l51.736-0.04l51.736,0.093l103.472,0.354L432,838.88
			l103.473,0.921l103.472,1.264l51.736,0.791l51.735,0.883l51.736,1.028L844.969,844.967z"/>
	</g>
	<g>
		<polygon points="200.699,590.369 200.699,389.152 334.669,389.152 334.669,415.497 229.04,415.497 229.04,473.288 
			320.852,473.288 320.852,499.632 229.04,499.632 229.04,590.369 		"/>
		<path d="M330.863,392.959v18.731h-105.63v65.405h91.812v18.73h-91.812v90.738h-20.727V392.959H330.863z"/>
		<path d="M436.459,590.369V389.152h77.194c9.913,0,18.859,1.766,26.59,5.25c7.69,3.467,14.268,8.069,19.555,13.679
			c5.276,5.605,9.333,11.983,12.06,18.958c2.72,6.97,4.099,14.048,4.099,21.038c0,7.494-1.376,14.876-4.092,21.938
			c-2.732,7.105-6.831,13.504-12.183,19.019c-5.345,5.508-11.956,9.977-19.653,13.282c-7.708,3.312-16.582,4.992-26.375,4.992
			h-48.854v83.061H436.459z M513.653,481.578c4.478,0,8.804-0.878,12.861-2.61c4.101-1.751,7.766-4.178,10.896-7.215
			c3.112-3.021,5.623-6.652,7.465-10.791c1.818-4.096,2.741-8.534,2.741-13.192s-0.872-8.997-2.594-12.895
			c-1.733-3.921-4.132-7.361-7.129-10.222c-2.998-2.862-6.607-5.127-10.727-6.729c-4.146-1.611-8.692-2.428-13.514-2.428h-48.854
			v66.082H513.653z"/>
		<path d="M440.266,392.959h73.388c9.417,0,17.757,1.638,25.026,4.913c7.267,3.277,13.382,7.549,18.348,12.82
			c4.964,5.273,8.725,11.184,11.284,17.733c2.558,6.552,3.838,13.103,3.838,19.652c0,7.062-1.28,13.921-3.838,20.573
			c-2.56,6.654-6.348,12.565-11.361,17.733c-5.017,5.169-11.158,9.314-18.424,12.436c-7.269,3.123-15.56,4.683-24.873,4.683h-52.661
			v83.062h-20.727V392.959z M460.992,485.385h52.661c5.015,0,9.8-0.971,14.356-2.917c4.553-1.942,8.571-4.605,12.053-7.983
			c3.478-3.378,6.24-7.369,8.29-11.976c2.046-4.605,3.07-9.519,3.07-14.739c0-5.22-0.974-10.029-2.917-14.432
			c-1.945-4.399-4.605-8.214-7.983-11.438c-3.378-3.224-7.369-5.731-11.976-7.522c-4.606-1.79-9.572-2.687-14.894-2.687h-52.661
			V485.385z"/>
		<polygon points="727.652,590.369 659.355,389.152 690.14,389.152 742.672,547.627 795.498,389.152 826.094,389.152 
			758.915,590.369 		"/>
		<path d="M742.662,559.695l55.579-166.736h22.568l-64.637,193.604H730.38l-65.712-193.604h22.723L742.662,559.695z"/>
		<polygon points="201.231,709.446 201.231,594.098 220.379,594.098 220.379,691.409 274.545,691.409 274.545,709.446 		"/>
		<path d="M216.572,597.904v97.312h54.167v10.423h-65.701V597.904H216.572z"/>
		<path d="M357.009,709.446l-11.961-32.978h-40.969l-11.961,32.978h-20.432l42.536-115.349h21.039l41.986,115.349H357.009z
			 M338.391,658.688l-13.835-38.861l-13.897,38.861H338.391z"/>
		<path d="M332.594,597.904l39.215,107.734h-12.132l-11.961-32.977H301.41l-11.961,32.977h-12.303l39.729-107.734H332.594z
			 M324.563,608.499l-19.309,53.995h38.532L324.563,608.499z"/>
		<polygon points="446.013,709.446 397.231,626.496 397.231,709.446 378.084,709.446 378.084,594.098 399.53,594.098 
			448.398,676.992 448.398,594.098 467.461,594.098 467.461,709.446 		"/>
		<path d="M397.355,597.904l54.85,93.041v-93.041h11.449v107.734h-15.465l-54.764-93.125v93.125h-11.535V597.904H397.355z"/>
		<path d="M476.164,709.446V594.098h43.792c7.675,0,14.739,1.57,20.997,4.666c6.213,3.078,11.562,7.306,15.9,12.567
			c4.295,5.209,7.641,11.354,9.943,18.262c2.284,6.854,3.442,14.243,3.442,21.965c0,8.02-1.22,15.624-3.626,22.601
			c-2.423,7.027-5.876,13.216-10.263,18.394c-4.425,5.224-9.788,9.387-15.938,12.37c-6.189,3.002-13.072,4.524-20.457,4.524H476.164
			z M515.342,691.409c5.175,0,9.994-0.896,14.324-2.664c4.285-1.75,8.036-4.305,11.147-7.594c3.126-3.302,5.612-7.457,7.39-12.353
			c1.804-4.969,2.719-10.712,2.719-17.07c0-6.978-0.929-13.063-2.761-18.091c-1.797-4.927-4.28-9.022-7.382-12.175
			c-3.079-3.128-6.791-5.479-11.033-6.984c-4.379-1.556-9.226-2.344-14.404-2.344h-20.201v79.274H515.342z"/>
		<path d="M479.971,597.904h39.985c7.118,0,13.555,1.424,19.308,4.271c5.753,2.85,10.638,6.706,14.653,11.576
			c4.016,4.871,7.104,10.552,9.27,17.045c2.164,6.493,3.246,13.414,3.246,20.761c0,7.634-1.14,14.754-3.417,21.36
			c-2.279,6.607-5.468,12.332-9.568,17.172c-4.102,4.842-9.001,8.644-14.695,11.406c-5.696,2.764-11.962,4.143-18.796,4.143h-39.985
			V597.904z M491.334,695.216h24.008c5.694,0,10.949-0.981,15.763-2.947c4.812-1.964,8.972-4.799,12.475-8.501
			c3.503-3.701,6.236-8.258,8.201-13.669c1.965-5.412,2.948-11.535,2.948-18.37c0-7.46-0.998-13.925-2.99-19.395
			c-1.995-5.467-4.742-9.979-8.245-13.541c-3.503-3.559-7.661-6.193-12.474-7.902c-4.813-1.71-10.039-2.562-15.678-2.562h-24.008
			V695.216z"/>
		<rect x="584.581" y="594.098" width="19.062" height="115.349"/>
		<path d="M599.836,597.904v107.734h-11.448V597.904H599.836z"/>
		<polygon points="686.084,709.446 637.304,626.496 637.304,709.446 618.157,709.446 618.157,594.098 639.602,594.098 
			688.471,676.992 688.471,594.098 707.533,594.098 707.533,709.446 		"/>
		<path d="M637.427,597.904l54.851,93.041v-93.041h11.448v107.734h-15.464l-54.765-93.125v93.125h-11.533V597.904H637.427z"/>
		<path d="M768.913,712.265c-8.063,0-15.449-1.593-21.948-4.736c-6.479-3.132-12.082-7.521-16.654-13.047
			c-4.529-5.47-8.05-11.966-10.466-19.307c-2.395-7.271-3.609-15.218-3.609-23.617c0-4.912,0.517-9.874,1.534-14.746
			c1.018-4.881,2.539-9.61,4.521-14.058c1.991-4.464,4.471-8.656,7.369-12.461c2.94-3.858,6.37-7.258,10.197-10.104
			c3.854-2.867,8.194-5.148,12.9-6.779c4.741-1.641,9.918-2.474,15.388-2.474c6.819,0,13.023,0.93,18.437,2.765
			c5.443,1.846,10.265,4.448,14.329,7.737c4.055,3.281,7.503,7.231,10.254,11.74c2.709,4.446,4.818,9.373,6.272,14.641l1.329,4.82
			h-19.826l-0.895-2.542c-2.575-7.31-6.288-12.765-11.036-16.214c-4.722-3.428-11.068-5.167-18.864-5.167
			c-4.669,0-9.003,1.102-12.877,3.273c-3.993,2.238-7.495,5.316-10.408,9.149c-2.967,3.904-5.311,8.519-6.963,13.717
			c-1.668,5.239-2.513,10.858-2.513,16.701c0,6.95,0.936,13.188,2.782,18.537c1.832,5.315,4.306,9.855,7.351,13.495
			c2.988,3.57,6.517,6.321,10.485,8.178c3.969,1.86,8.225,2.803,12.654,2.803c2.466,0,4.965-0.433,7.426-1.284
			c2.533-0.878,4.983-2.13,7.281-3.721c2.342-1.62,4.551-3.569,6.567-5.792c2.02-2.228,3.81-4.703,5.32-7.356
			c1.502-2.644,2.712-5.458,3.596-8.365c0.481-1.585,0.847-3.198,1.095-4.826h-33.042v-17.694h51.955v63.915h-13.999l-2.49-13.946
			c-0.572,0.614-1.161,1.223-1.771,1.825c-2.814,2.785-5.95,5.308-9.318,7.492c-3.392,2.2-7.004,3.998-10.735,5.343
			C776.664,711.557,772.752,712.265,768.913,712.265z"/>
		<path d="M731.577,651.558c0,7.404,0.996,14,2.99,19.779c1.993,5.781,4.67,10.679,8.031,14.695c3.359,4.015,7.29,7.078,11.79,9.184
			c4.499,2.108,9.255,3.161,14.268,3.161c2.905,0,5.795-0.498,8.671-1.494c2.877-0.996,5.61-2.393,8.203-4.188
			c2.591-1.793,4.998-3.915,7.219-6.363c2.222-2.449,4.158-5.128,5.81-8.031c1.652-2.906,2.961-5.952,3.931-9.143
			c0.968-3.189,1.509-6.436,1.623-9.739h-33.406v-10.081h44.343v56.301h-7.007l-3.417-19.136c-1.823,2.79-4.059,5.496-6.707,8.115
			c-2.647,2.622-5.553,4.956-8.714,7.007c-3.161,2.05-6.48,3.702-9.954,4.954c-3.475,1.252-6.92,1.879-10.337,1.879
			c-7.519,0-14.283-1.451-20.291-4.355c-6.011-2.906-11.137-6.921-15.38-12.048c-4.243-5.126-7.504-11.149-9.782-18.069
			s-3.417-14.396-3.417-22.428c0-4.669,0.482-9.325,1.452-13.969c0.968-4.64,2.393-9.068,4.272-13.285
			c1.879-4.215,4.187-8.116,6.92-11.704s5.881-6.708,9.44-9.355c3.559-2.648,7.52-4.728,11.876-6.237
			c4.357-1.508,9.069-2.264,14.141-2.264c6.435,0,12.174,0.855,17.214,2.563c5.041,1.708,9.427,4.072,13.158,7.091
			c3.729,3.021,6.862,6.607,9.397,10.764c2.534,4.159,4.485,8.716,5.854,13.672h-12.133c-2.849-8.088-6.979-14.099-12.389-18.028
			c-5.411-3.931-12.445-5.895-21.102-5.895c-5.355,0-10.269,1.254-14.738,3.759c-4.473,2.508-8.33,5.895-11.576,10.167
			c-3.247,4.272-5.768,9.228-7.562,14.866C732.474,639.341,731.577,645.293,731.577,651.558z"/>
		<path d="M201.504,823.644V713.095h42.826c5.524,0,10.527,0.991,14.87,2.948c4.305,1.942,7.993,4.525,10.962,7.677
			c2.962,3.146,5.241,6.731,6.775,10.653c1.527,3.913,2.301,7.894,2.301,11.833c0,4.205-0.772,8.344-2.294,12.305
			c-1.541,4.005-3.85,7.609-6.862,10.714c-3.005,3.098-6.715,5.606-11.025,7.458c-4.322,1.857-9.277,2.8-14.726,2.8h-24.192v44.161
			H201.504z M244.33,762.236c2.166,0,4.174-0.407,6.139-1.245c1.977-0.844,3.744-2.014,5.25-3.475
			c1.49-1.448,2.695-3.192,3.581-5.184c0.878-1.975,1.304-4.031,1.304-6.289c0-2.229-0.413-4.293-1.227-6.137
			c-0.827-1.87-1.968-3.506-3.391-4.865c-1.425-1.36-3.149-2.439-5.12-3.206c-1.994-0.775-4.195-1.168-6.538-1.168h-24.192v31.568
			H244.33z"/>
		<path d="M205.311,716.901h39.019c5.006,0,9.441,0.871,13.306,2.612c3.863,1.743,7.114,4.014,9.754,6.816
			c2.639,2.803,4.639,5.946,6,9.429c1.359,3.482,2.041,6.967,2.041,10.447c0,3.756-0.681,7.402-2.041,10.939
			c-1.361,3.538-3.375,6.681-6.041,9.427c-2.667,2.75-5.932,4.954-9.795,6.613c-3.865,1.66-8.272,2.49-13.224,2.49h-27.999v44.161
			h-11.02V716.901z M216.331,766.043h27.999c2.666,0,5.21-0.517,7.632-1.551c2.421-1.033,4.557-2.449,6.408-4.245
			c1.849-1.796,3.319-3.918,4.408-6.366c1.088-2.449,1.633-5.062,1.633-7.837c0-2.776-0.518-5.334-1.552-7.674
			c-1.034-2.339-2.448-4.367-4.244-6.081s-3.918-3.048-6.367-4c-2.449-0.952-5.09-1.428-7.918-1.428h-27.999V766.043z"/>
		<path d="M357.738,823.644l-11.428-31.509h-38.906l-11.428,31.509h-19.884l40.765-110.549h20.339l40.24,110.549H357.738z
			 M339.828,774.808l-12.979-36.457l-13.037,36.457H339.828z"/>
		<path d="M334.53,716.901l37.468,102.936h-11.591l-11.428-31.509h-44.243l-11.428,31.509h-11.755l37.958-102.936H334.53z
			 M326.857,727.023l-18.449,51.591h36.815L326.857,727.023z"/>
		<path d="M428.486,826.337c-7.73,0-14.81-1.527-21.044-4.543c-6.208-2.999-11.581-7.207-15.969-12.508
			c-4.34-5.243-7.715-11.468-10.03-18.502c-2.293-6.966-3.456-14.576-3.456-22.619c0-4.704,0.494-9.457,1.468-14.124
			c0.975-4.679,2.433-9.209,4.331-13.465c1.909-4.28,4.284-8.298,7.061-11.941c2.816-3.695,6.105-6.955,9.775-9.687
			c3.693-2.748,7.856-4.936,12.373-6.5c4.545-1.575,9.511-2.373,14.756-2.373c6.537,0,12.482,0.891,17.671,2.65
			c5.218,1.77,9.842,4.266,13.742,7.42c3.892,3.151,7.2,6.941,9.836,11.265c2.595,4.257,4.617,8.977,6.011,14.03l1.329,4.817
			h-19.284l-0.896-2.542c-2.448-6.949-5.976-12.134-10.482-15.407c-4.481-3.256-10.513-4.906-17.926-4.906
			c-4.495,0-8.492,1.016-12.22,3.104c-3.794,2.128-7.122,5.054-9.891,8.697c-2.824,3.716-5.054,8.107-6.627,13.054
			c-1.587,4.989-2.392,10.342-2.392,15.907c0,6.623,0.891,12.563,2.649,17.656c1.744,5.059,4.097,9.378,6.994,12.838
			c2.838,3.392,6.189,6.006,9.96,7.772c3.77,1.765,7.812,2.66,12.018,2.66c2.339,0,4.707-0.41,7.039-1.218
			c2.407-0.834,4.734-2.023,6.917-3.534c2.227-1.542,4.328-3.396,6.244-5.509c1.922-2.118,3.625-4.472,5.062-6.999
			c1.431-2.516,2.581-5.194,3.421-7.957c0.438-1.443,0.775-2.91,1.01-4.393h-31.54v-17.246h49.979v61.407h-13.687l-2.346-13.132
			c-0.475,0.505-0.963,1.006-1.464,1.501c-2.704,2.676-5.71,5.092-8.933,7.182c-3.251,2.11-6.714,3.833-10.291,5.122
			C435.934,825.657,432.177,826.337,428.486,826.337z"/>
		<path d="M392.814,768.165c0,7.075,0.951,13.376,2.857,18.897c1.904,5.524,4.461,10.204,7.673,14.04
			c3.21,3.837,6.965,6.763,11.265,8.776c4.298,2.013,8.843,3.02,13.632,3.02c2.776,0,5.537-0.476,8.286-1.429
			c2.747-0.952,5.359-2.285,7.836-4c2.476-1.715,4.775-3.741,6.898-6.081c2.122-2.34,3.972-4.898,5.551-7.673
			c1.577-2.776,2.829-5.687,3.755-8.734c0.925-3.047,1.441-6.148,1.551-9.306h-31.917v-9.633h42.366v53.794h-6.694l-3.265-18.285
			c-1.742,2.668-3.878,5.252-6.408,7.755c-2.53,2.504-5.306,4.735-8.326,6.694s-6.191,3.538-9.511,4.734s-6.611,1.796-9.877,1.796
			c-7.183,0-13.646-1.388-19.387-4.163c-5.742-2.775-10.64-6.613-14.693-11.51c-4.055-4.897-7.171-10.653-9.347-17.265
			c-2.176-6.612-3.265-13.756-3.265-21.429c0-4.462,0.461-8.909,1.388-13.347c0.925-4.435,2.285-8.666,4.082-12.692
			c1.795-4.027,4-7.756,6.612-11.184c2.612-3.429,5.619-6.408,9.02-8.938c3.4-2.531,7.184-4.517,11.347-5.959
			s8.665-2.164,13.51-2.164c6.149,0,11.632,0.816,16.448,2.449s9.006,3.892,12.571,6.775c3.563,2.886,6.558,6.313,8.979,10.286
			c2.421,3.972,4.285,8.325,5.592,13.06h-11.592c-2.722-7.726-6.667-13.469-11.836-17.223c-5.171-3.756-11.892-5.633-20.163-5.633
			c-5.116,0-9.81,1.197-14.081,3.591c-4.273,2.396-7.959,5.633-11.061,9.714c-3.103,4.082-5.511,8.816-7.225,14.203
			C393.671,756.493,392.814,762.179,392.814,768.165z"/>
		<polygon points="484.351,823.644 484.351,713.095 560.695,713.095 560.695,730.668 502.983,730.668 502.983,757.828 
			557.268,757.828 557.268,775.401 502.983,775.401 502.983,806.072 563.227,806.072 563.227,823.644 		"/>
		<path d="M556.889,716.901v9.96h-57.712v34.773h54.284v9.96h-54.284v38.284h60.243v9.958h-71.263V716.901H556.889z"/>
		<path d="M613.457,826.583c-5.258,0-10.44-0.899-15.402-2.671c-4.983-1.78-9.486-4.357-13.384-7.66
			c-3.934-3.333-7.158-7.436-9.584-12.195c-2.45-4.812-3.784-10.257-3.964-16.186l-0.119-3.922h18.805l0.262,3.524
			c0.237,3.177,0.975,6.128,2.192,8.771c1.207,2.625,2.836,4.925,4.843,6.839c1.997,1.905,4.393,3.41,7.121,4.472
			c2.751,1.075,5.856,1.619,9.23,1.619c3.119,0,6.137-0.337,8.967-1.001c2.654-0.623,5.023-1.641,7.044-3.026
			c1.934-1.325,3.426-2.988,4.562-5.081c1.103-2.038,1.662-4.642,1.662-7.737c0-2.248-0.526-4.069-1.607-5.569
			c-1.249-1.729-2.938-3.253-5.024-4.532c-2.29-1.403-4.929-2.633-7.841-3.652c-3.123-1.095-6.362-2.166-9.629-3.184
			c-2.759-0.812-5.604-1.703-8.396-2.634c-2.899-0.967-5.729-2.073-8.409-3.288c-2.775-1.254-5.409-2.742-7.825-4.423
			c-2.513-1.746-4.739-3.802-6.617-6.11c-1.927-2.367-3.457-5.121-4.55-8.186c-1.095-3.062-1.65-6.567-1.65-10.42
			c0-4.827,0.975-9.209,2.897-13.021c1.927-3.82,4.678-7.053,8.176-9.605c3.384-2.469,7.441-4.358,12.059-5.618
			c4.493-1.226,9.499-1.848,14.878-1.848c7.188,0,13.315,1.082,18.213,3.215c4.917,2.142,8.956,4.945,12.003,8.33
			c3.035,3.372,5.263,7.163,6.621,11.269c1.293,3.912,2.069,7.761,2.308,11.439l0.263,4.052h-18.843l-0.278-3.504
			c-0.231-2.901-0.914-5.46-2.03-7.604s-2.566-3.958-4.309-5.392c-1.766-1.453-3.843-2.568-6.171-3.313
			c-2.414-0.773-5.031-1.164-7.776-1.164c-2.603,0-5.189,0.272-7.688,0.811c-2.363,0.512-4.494,1.323-6.329,2.411
			c-1.697,1.006-3.018,2.271-4.036,3.872c-0.932,1.464-1.404,3.371-1.404,5.67c0,2.387,0.526,4.308,1.61,5.875
			c1.22,1.765,2.89,3.314,4.964,4.608c2.283,1.424,4.973,2.691,7.996,3.765c3.234,1.151,6.589,2.242,9.969,3.243
			c2.843,0.893,5.665,1.806,8.448,2.733c2.898,0.967,5.718,2.075,8.38,3.293c2.745,1.255,5.335,2.707,7.698,4.312
			c2.505,1.701,4.704,3.713,6.536,5.979c1.869,2.316,3.357,5.015,4.422,8.021c1.067,3.012,1.607,6.433,1.607,10.169
			c0,5.563-1.062,10.571-3.158,14.886c-2.1,4.322-5.061,7.987-8.804,10.895c-3.667,2.851-8.062,5.008-13.059,6.413
			C624.441,825.889,619.11,826.583,613.457,826.583z"/>
		<path d="M586.275,787.756c0.271,3.647,1.113,7.008,2.53,10.081c1.414,3.076,3.306,5.743,5.673,8
			c2.367,2.259,5.156,4.015,8.367,5.266c3.21,1.253,6.747,1.878,10.611,1.878c3.429,0,6.706-0.367,9.837-1.102
			c3.128-0.735,5.904-1.932,8.326-3.593c2.421-1.659,4.34-3.796,5.755-6.407c1.414-2.612,2.123-5.796,2.123-9.551
			c0-3.048-0.775-5.646-2.327-7.796c-1.551-2.148-3.592-4-6.122-5.551s-5.388-2.885-8.571-4s-6.436-2.189-9.755-3.226
			c-2.775-0.816-5.551-1.686-8.326-2.61c-2.776-0.926-5.457-1.972-8.04-3.144c-2.586-1.169-4.994-2.531-7.225-4.082
			c-2.231-1.551-4.178-3.347-5.837-5.387c-1.66-2.04-2.967-4.394-3.918-7.062c-0.952-2.665-1.429-5.713-1.429-9.142
			c0-4.246,0.829-8.014,2.49-11.307c1.659-3.291,3.999-6.041,7.021-8.244c3.02-2.203,6.625-3.878,10.815-5.02
			c4.189-1.144,8.815-1.715,13.877-1.715c6.693,0,12.258,0.967,16.693,2.898c4.435,1.931,7.999,4.394,10.693,7.387
			s4.639,6.299,5.837,9.918c1.195,3.619,1.903,7.115,2.123,10.488h-11.266c-0.272-3.427-1.089-6.448-2.449-9.059
			c-1.361-2.613-3.115-4.804-5.265-6.572c-2.151-1.769-4.626-3.103-7.429-4c-2.803-0.896-5.783-1.346-8.938-1.346
			c-2.886,0-5.715,0.298-8.489,0.896c-2.776,0.601-5.265,1.551-7.469,2.857c-2.204,1.306-3.974,3.008-5.308,5.102
			c-1.333,2.095-2,4.667-2,7.715c0,3.157,0.763,5.836,2.287,8.039c1.522,2.204,3.551,4.097,6.08,5.675
			c2.531,1.579,5.442,2.951,8.735,4.122c3.292,1.17,6.68,2.273,10.163,3.305c2.775,0.872,5.551,1.771,8.326,2.695
			c2.775,0.926,5.44,1.973,8,3.143c2.558,1.17,4.938,2.503,7.142,4c2.205,1.498,4.108,3.237,5.715,5.224
			c1.604,1.987,2.869,4.285,3.795,6.898c0.926,2.612,1.389,5.579,1.389,8.897c0,5.007-0.926,9.416-2.775,13.224
			c-1.851,3.81-4.422,6.993-7.714,9.551c-3.294,2.559-7.212,4.478-11.755,5.754c-4.545,1.279-9.483,1.92-14.816,1.92
			c-4.844,0-9.55-0.816-14.122-2.449c-4.57-1.633-8.64-3.959-12.203-6.979c-3.564-3.021-6.449-6.694-8.653-11.02
			c-2.203-4.327-3.387-9.184-3.551-14.572H586.275z"/>
		<rect x="657.243" y="809.339" width="14.153" height="14.305"/>
		<path d="M667.59,813.146v6.691h-6.54v-6.691H667.59z"/>
		<path d="M696.268,825.021c-3.809,0-7.334-0.71-10.476-2.107c-3.188-1.418-5.94-3.498-8.182-6.181
			c-2.187-2.618-3.886-5.828-5.05-9.542c-1.132-3.602-1.705-7.696-1.705-12.171c0-2.371,0.246-4.738,0.733-7.038
			c0.489-2.32,1.222-4.552,2.176-6.632c0.962-2.101,2.162-4.07,3.565-5.854c1.445-1.835,3.13-3.443,5.009-4.781
			c1.902-1.353,4.034-2.42,6.34-3.174c2.329-0.761,4.855-1.146,7.513-1.146c3.285,0,6.289,0.455,8.928,1.351
			c2.669,0.904,5.044,2.188,7.059,3.817c2.004,1.622,3.707,3.571,5.063,5.796c1.314,2.159,2.337,4.543,3.04,7.089l1.328,4.818
			h-13.123l-0.896-2.542c-1.008-2.86-2.419-4.965-4.191-6.253c-1.747-1.269-4.173-1.912-7.208-1.912
			c-1.763,0-3.322,0.385-4.767,1.176c-1.558,0.854-2.87,1.979-4.013,3.441c-1.171,1.502-2.103,3.293-2.764,5.319
			c-0.676,2.066-1.018,4.287-1.018,6.601c0,3.223,0.41,6.02,1.219,8.314c0.791,2.247,1.81,4.096,3.028,5.496
			c1.186,1.362,2.476,2.344,3.941,3c1.481,0.664,2.936,0.987,4.448,0.987c1.562,0,2.96-0.273,4.152-0.812
			c1.29-0.58,2.377-1.318,3.32-2.254c0.966-0.955,1.773-2.065,2.402-3.304c0.654-1.285,1.118-2.613,1.381-3.943l0.604-3.07h12.984
			l-0.879,4.531c-0.55,2.833-1.462,5.521-2.711,7.99c-1.29,2.549-2.967,4.811-4.984,6.723c-2.044,1.938-4.456,3.482-7.167,4.588
			C702.643,824.456,699.579,825.021,696.268,825.021z"/>
		<path d="M679.824,795.097c0,3.67,0.479,6.864,1.435,9.58c0.956,2.713,2.205,4.957,3.748,6.729
			c1.541,1.772,3.294,3.097,5.258,3.976c1.962,0.88,3.963,1.319,6.003,1.319c2.116,0,4.021-0.382,5.717-1.147
			c1.694-0.764,3.174-1.771,4.436-3.021c1.263-1.247,2.3-2.676,3.116-4.281c0.815-1.606,1.39-3.251,1.722-4.933h5.238
			c-0.484,2.498-1.275,4.831-2.371,6.997c-1.097,2.167-2.498,4.06-4.207,5.679c-1.707,1.62-3.702,2.894-5.983,3.823
			c-2.282,0.931-4.837,1.396-7.667,1.396c-3.289,0-6.266-0.594-8.929-1.778c-2.664-1.186-4.934-2.899-6.807-5.144
			c-1.873-2.243-3.321-4.99-4.34-8.24c-1.021-3.249-1.53-6.927-1.53-11.032c0-2.116,0.217-4.198,0.65-6.251
			c0.434-2.052,1.07-3.997,1.912-5.832c0.842-1.836,1.873-3.531,3.098-5.087c1.224-1.554,2.631-2.899,4.225-4.033
			s3.365-2.02,5.315-2.657s4.06-0.957,6.329-0.957c2.88,0,5.449,0.383,7.705,1.148c2.256,0.764,4.219,1.823,5.889,3.173
			c1.669,1.352,3.072,2.958,4.206,4.817c1.134,1.862,2.008,3.9,2.619,6.119h-5.429c-1.275-3.619-3.124-6.309-5.545-8.068
			c-2.422-1.759-5.571-2.639-9.445-2.639c-2.397,0-4.596,0.549-6.596,1.644c-2.003,1.099-3.729,2.576-5.183,4.437
			c-1.452,1.861-2.581,4.022-3.384,6.481C680.227,789.775,679.824,792.368,679.824,795.097z"/>
		<path d="M745.481,824.906c-3.977,0-7.605-0.741-10.785-2.203c-3.21-1.476-5.95-3.584-8.145-6.27
			c-2.14-2.611-3.78-5.74-4.878-9.297c-1.064-3.446-1.604-7.266-1.604-11.352c0-4.061,0.539-7.867,1.604-11.314
			c1.098-3.555,2.738-6.684,4.878-9.299c2.196-2.684,4.936-4.793,8.144-6.268c3.181-1.462,6.81-2.202,10.786-2.202
			c4.002,0,7.644,0.74,10.824,2.202c3.202,1.474,5.946,3.578,8.154,6.257c2.158,2.619,3.809,5.751,4.907,9.31
			c1.063,3.449,1.603,7.255,1.603,11.314c0,4.085-0.539,7.903-1.603,11.351c-1.1,3.562-2.75,6.692-4.906,9.311
			c-2.208,2.678-4.951,4.784-8.152,6.257C753.125,824.165,749.483,824.906,745.481,824.906z M745.481,778.826
			c-1.766,0-3.355,0.345-4.858,1.054c-1.509,0.71-2.791,1.713-3.919,3.066c-1.162,1.393-2.099,3.163-2.784,5.264
			c-0.713,2.181-1.075,4.729-1.075,7.575c0,2.845,0.362,5.394,1.075,7.575c0.688,2.105,1.627,3.886,2.792,5.291
			c1.129,1.363,2.407,2.369,3.911,3.077c1.501,0.707,3.09,1.052,4.858,1.052s3.357-0.345,4.86-1.052
			c1.506-0.71,2.796-1.721,3.939-3.09c1.176-1.406,2.127-3.188,2.827-5.296c0.72-2.176,1.087-4.72,1.087-7.558
			c0-2.839-0.367-5.382-1.088-7.56c-0.698-2.101-1.646-3.873-2.818-5.267c-1.145-1.359-2.436-2.367-3.947-3.079
			C748.837,779.171,747.248,778.826,745.481,778.826z"/>
		<path d="M767.163,795.785c0,3.723-0.478,7.131-1.433,10.229c-0.957,3.097-2.359,5.768-4.208,8.01
			c-1.849,2.244-4.116,3.983-6.806,5.221c-2.69,1.236-5.769,1.854-9.235,1.854c-3.441,0-6.507-0.618-9.196-1.854
			c-2.69-1.237-4.952-2.977-6.787-5.221c-1.836-2.242-3.231-4.913-4.188-8.01c-0.956-3.099-1.434-6.507-1.434-10.229
			c0-3.696,0.478-7.094,1.434-10.191c0.956-3.097,2.352-5.768,4.188-8.012c1.835-2.242,4.097-3.981,6.787-5.22
			c2.689-1.234,5.755-1.854,9.196-1.854c3.467,0,6.545,0.619,9.235,1.854c2.689,1.238,4.957,2.978,6.806,5.22
			c1.849,2.244,3.251,4.915,4.208,8.012C766.686,788.691,767.163,792.089,767.163,795.785z M762.002,795.785
			c0-3.264-0.429-6.183-1.281-8.758c-0.854-2.573-2.027-4.747-3.519-6.519c-1.491-1.772-3.238-3.13-5.238-4.073
			c-2.003-0.942-4.163-1.416-6.482-1.416c-2.32,0-4.48,0.474-6.481,1.416c-2.001,0.943-3.742,2.301-5.22,4.073
			c-1.479,1.771-2.638,3.945-3.479,6.519c-0.841,2.575-1.263,5.494-1.263,8.758c0,3.263,0.422,6.182,1.263,8.757
			c0.842,2.574,2.001,4.754,3.479,6.538c1.478,1.785,3.219,3.149,5.22,4.092s4.161,1.414,6.481,1.414
			c2.319,0,4.479-0.472,6.482-1.414c2-0.942,3.747-2.307,5.238-4.092c1.491-1.784,2.664-3.964,3.519-6.538
			C761.573,801.967,762.002,799.048,762.002,795.785z"/>
		<polygon points="809.854,823.644 809.854,801.673 801.787,823.644 791.862,823.644 783.511,801.309 783.511,823.644 
			770.736,823.644 770.736,767.812 783.841,767.812 796.531,801.916 809.507,767.812 822.592,767.812 822.592,823.644 		"/>
		<path d="M781.195,771.618l15.297,41.106l15.64-41.106h6.653v48.219h-5.125v-39.576l-14.529,39.576h-4.628l-14.799-39.576v39.576
			h-5.162v-48.219H781.195z"/>
	</g>
</g>
<text transform="matrix(1 0 0 1 36.2441 367.0835)" display="none"><tspan x="0" y="0" display="inline" font-family="'DevanagariSangamMN'" font-size="363" letter-spacing="105">FPV</tspan><tspan x="10.627" y="156.409" display="inline" font-family="'DevanagariSangamMN'" font-size="202">LANDING</tspan><tspan x="11.54" y="306.409" display="inline" font-family="'DevanagariSangamMN'" font-size="193">PAGES</tspan><tspan x="616.588" y="306.409" display="inline" font-family="'DevanagariSangamMN'" font-size="90.4099">.COM</tspan></text>
</svg>
